<svg width="1280" height="640" viewBox="0 0 1280 640" xmlns="http://www.w3.org/2000/svg">
  <defs>
    <linearGradient id="bgGradientGH" x1="0%" y1="0%" x2="100%" y2="100%">
      <stop offset="0%" style="stop-color:#1E1B4B;stop-opacity:1" />
      <stop offset="100%" style="stop-color:#312E81;stop-opacity:1" />
    </linearGradient>
    <linearGradient id="diskGradientGH" x1="0%" y1="0%" x2="0%" y2="100%">
      <stop offset="0%" style="stop-color:#6366F1;stop-opacity:1" />
      <stop offset="100%" style="stop-color:#8B5CF6;stop-opacity:1" />
    </linearGradient>
    <linearGradient id="labelGradientGH" x1="0%" y1="0%" x2="100%" y2="100%">
      <stop offset="0%" style="stop-color:#FCD34D;stop-opacity:1" />
      <stop offset="100%" style="stop-color:#FBBF24;stop-opacity:1" />
    </linearGradient>
  </defs>
  
  <!-- Background -->
  <rect width="1280" height="640" fill="url(#bgGradientGH)"/>
  
  <!-- Decorative grid pattern -->
  <g opacity="0.08">
    <line x1="0" y1="160" x2="1280" y2="160" stroke="#FFF" stroke-width="1"/>
    <line x1="0" y1="320" x2="1280" y2="320" stroke="#FFF" stroke-width="1"/>
    <line x1="0" y1="480" x2="1280" y2="480" stroke="#FFF" stroke-width="1"/>
    <line x1="320" y1="0" x2="320" y2="640" stroke="#FFF" stroke-width="1"/>
    <line x1="640" y1="0" x2="640" y2="640" stroke="#FFF" stroke-width="1"/>
    <line x1="960" y1="0" x2="960" y2="640" stroke="#FFF" stroke-width="1"/>
  </g>
  
  <!-- Floppy disk illustration -->
  <g transform="translate(160, 120)">
    <!-- Main disk body -->
    <rect x="0" y="0" width="350" height="400" rx="15" fill="url(#diskGradientGH)"/>
    
    <!-- Metal slide at top -->
    <rect x="50" y="0" width="250" height="87.5" rx="7.5" fill="#64748B"/>
    <rect x="62.5" y="12.5" width="225" height="62.5" rx="5" fill="#94A3B8"/>
    
    <!-- Slide opening -->
    <rect x="100" y="25" width="150" height="37.5" rx="5" fill="#0F172A"/>
    
    <!-- Label area -->
    <rect x="37.5" y="150" width="275" height="212.5" rx="7.5" fill="url(#labelGradientGH)"/>
    
    <!-- Label lines -->
    <line x1="62.5" y1="187.5" x2="287.5" y2="187.5" stroke="#78350F" stroke-width="3" opacity="0.3"/>
    <line x1="62.5" y1="225" x2="287.5" y2="225" stroke="#78350F" stroke-width="3" opacity="0.3"/>
    <line x1="62.5" y1="262.5" x2="287.5" y2="262.5" stroke="#78350F" stroke-width="3" opacity="0.3"/>
    <line x1="62.5" y1="300" x2="225" y2="300" stroke="#78350F" stroke-width="3" opacity="0.3"/>

    <!-- Bottom cutout -->
    <rect x="150" y="387.5" width="100" height="7.5" fill="#0F172A"/>
  </g>
  
  <!-- Text content -->
  <g transform="translate(620, 180)">
    <!-- Title -->
    <text x="0" y="0" font-family="system-ui, -apple-system, sans-serif" font-size="80" font-weight="bold" fill="#FFFFFF">
      Retro Floppy
    </text>
    
    <!-- Emoji -->
    <text x="0" y="100" font-size="56">💾</text>
    
    <!-- Subtitle -->
    <text x="0" y="180" font-family="system-ui, -apple-system, sans-serif" font-size="32" fill="#E0E7FF" opacity="0.95">
      <tspan x="0" dy="0">A beautiful, interactive 3.5" floppy disk</tspan>
      <tspan x="0" dy="45">React component for retro-themed UIs</tspan>
    </text>
    
    <!-- Features -->
    <g transform="translate(0, 280)">
      <text font-family="system-ui, -apple-system, sans-serif" font-size="22" fill="#A5B4FC">
        <tspan x="0" dy="0">✓ Highly Customizable</tspan>
        <tspan x="0" dy="38">✓ Interactive Animations</tspan>
        <tspan x="0" dy="38">✓ TypeScript Support</tspan>
      </text>
    </g>
  </g>
</svg>

