<svg width="1200" height="630" viewBox="0 0 1200 630" xmlns="http://www.w3.org/2000/svg">
  <defs>
    <linearGradient id="bgGradient" x1="0%" y1="0%" x2="100%" y2="100%">
      <stop offset="0%" style="stop-color:#1E1B4B;stop-opacity:1" />
      <stop offset="100%" style="stop-color:#312E81;stop-opacity:1" />
    </linearGradient>
    <linearGradient id="diskGradientSocial" x1="0%" y1="0%" x2="0%" y2="100%">
      <stop offset="0%" style="stop-color:#6366F1;stop-opacity:1" />
      <stop offset="100%" style="stop-color:#8B5CF6;stop-opacity:1" />
    </linearGradient>
    <linearGradient id="labelGradientSocial" x1="0%" y1="0%" x2="100%" y2="100%">
      <stop offset="0%" style="stop-color:#FCD34D;stop-opacity:1" />
      <stop offset="100%" style="stop-color:#FBBF24;stop-opacity:1" />
    </linearGradient>
  </defs>
  
  <!-- Background -->
  <rect width="1200" height="630" fill="url(#bgGradient)"/>
  
  <!-- Decorative grid pattern -->
  <g opacity="0.1">
    <line x1="0" y1="157.5" x2="1200" y2="157.5" stroke="#FFF" stroke-width="1"/>
    <line x1="0" y1="315" x2="1200" y2="315" stroke="#FFF" stroke-width="1"/>
    <line x1="0" y1="472.5" x2="1200" y2="472.5" stroke="#FFF" stroke-width="1"/>
    <line x1="300" y1="0" x2="300" y2="630" stroke="#FFF" stroke-width="1"/>
    <line x1="600" y1="0" x2="600" y2="630" stroke="#FFF" stroke-width="1"/>
    <line x1="900" y1="0" x2="900" y2="630" stroke="#FFF" stroke-width="1"/>
  </g>
  
  <!-- Floppy disk illustration (larger) -->
  <g transform="translate(150, 115)">
    <!-- Main disk body -->
    <rect x="0" y="0" width="350" height="400" rx="15" fill="url(#diskGradientSocial)"/>
    
    <!-- Metal slide at top -->
    <rect x="50" y="0" width="250" height="87.5" rx="7.5" fill="#64748B"/>
    <rect x="62.5" y="12.5" width="225" height="62.5" rx="5" fill="#94A3B8"/>
    
    <!-- Slide opening -->
    <rect x="100" y="25" width="150" height="37.5" rx="5" fill="#0F172A"/>
    
    <!-- Label area -->
    <rect x="37.5" y="150" width="275" height="212.5" rx="7.5" fill="url(#labelGradientSocial)"/>
    
    <!-- Label lines -->
    <line x1="62.5" y1="187.5" x2="287.5" y2="187.5" stroke="#78350F" stroke-width="3" opacity="0.3"/>
    <line x1="62.5" y1="225" x2="287.5" y2="225" stroke="#78350F" stroke-width="3" opacity="0.3"/>
    <line x1="62.5" y1="262.5" x2="287.5" y2="262.5" stroke="#78350F" stroke-width="3" opacity="0.3"/>
    <line x1="62.5" y1="300" x2="225" y2="300" stroke="#78350F" stroke-width="3" opacity="0.3"/>

    <!-- Bottom cutout -->
    <rect x="150" y="387.5" width="100" height="7.5" fill="#0F172A"/>
  </g>
  
  <!-- Text content -->
  <g transform="translate(600, 200)">
    <!-- Title -->
    <text x="0" y="0" font-family="system-ui, -apple-system, sans-serif" font-size="72" font-weight="bold" fill="#FFFFFF">
      Retro Floppy
    </text>
    
    <!-- Emoji -->
    <text x="0" y="90" font-size="48">💾</text>
    
    <!-- Subtitle -->
    <text x="0" y="160" font-family="system-ui, -apple-system, sans-serif" font-size="28" fill="#E0E7FF">
      <tspan x="0" dy="0">A beautiful, interactive 3.5" floppy disk</tspan>
      <tspan x="0" dy="40">React component for retro-themed UIs</tspan>
    </text>
    
    <!-- Features -->
    <g transform="translate(0, 250)">
      <text font-family="system-ui, -apple-system, sans-serif" font-size="20" fill="#A5B4FC">
        <tspan x="0" dy="0">✓ Highly Customizable</tspan>
        <tspan x="0" dy="35">✓ Interactive Animations</tspan>
        <tspan x="0" dy="35">✓ TypeScript Support</tspan>
      </text>
    </g>
  </g>
</svg>

